<svg width="512" height="512" xmlns="http://www.w3.org/2000/svg">

 <g>
  <title>background</title>
  <rect fill="none" id="canvas_background" height="602" width="802" y="-1" x="-1"/>
 </g>
 <g>
  <title>Layer 1</title>
  <g id="svg_1">
   <g id="svg_2">
    <path fill="#BBBBBB" id="svg_3" d="m352,128c-70.592,0 -128,43.072 -128,96c0,21.376 9.056,41.568 25.792,57.952l-24,46.72c-3.136,6.08 -2.016,13.504 2.72,18.432c3.072,3.2 7.264,4.896 11.488,4.896c2.304,0 4.672,-0.512 6.848,-1.536l71.552,-33.824c84.256,16.864 161.6,-31.36 161.6,-92.64c0,-52.928 -57.408,-96 -128,-96zm-31.36,112c-8.832,0 -16.16,-7.168 -16.16,-16c0,-8.832 7.008,-16 15.84,-16l0.32,0c8.832,0 16,7.168 16,16c0,8.832 -7.168,16 -16,16zm64,0c-8.8,0 -16.16,-7.168 -16.16,-16c0,-8.832 7.008,-16 15.84,-16l0.32,0c8.832,0 16,7.168 16,16c0,8.832 -7.168,16 -16,16z"/>
   </g>
  </g>
  <g id="svg_4">
   <g id="svg_5">
    <path fill="#BBBBBB" id="svg_6" d="m352,96l0,-64c0,-17.632 -14.336,-32 -32,-32l-256,0c-17.632,0 -32,14.368 -32,32l0,448c0,17.664 14.368,32 32,32l256,0c17.664,0 32,-14.336 32,-32l0,-128l-32,0l0,64l-256,0l0,-352l256,0l0,32l32,0z"/>
   </g>
  </g>
  <g id="svg_7"/>
  <g id="svg_8"/>
  <g id="svg_9"/>
  <g id="svg_10"/>
  <g id="svg_11"/>
  <g id="svg_12"/>
  <g id="svg_13"/>
  <g id="svg_14"/>
  <g id="svg_15"/>
  <g id="svg_16"/>
  <g id="svg_17"/>
  <g id="svg_18"/>
  <g id="svg_19"/>
  <g id="svg_20"/>
  <g id="svg_21"/>
 </g>
</svg>