<svg enable-background="new 0 0 42.5 42.5" viewBox="0 0 42.5 42.5" xmlns="http://www.w3.org/2000/svg"><g fill="#a42f8c"><path d="m32.9 30.3h-23.3c-.2 0-.4.1-.4.4v2.2c0 .2.1.4.4.4h23.4c.2 0 .4-.1.4-.4v-2.2c-.1-.2-.2-.4-.5-.4z"/><path d="m18.1 25.2h1.9v2.2h-1.9z"/><path d="m18.1 20.7h1.9v2.2h-1.9z"/><path d="m22.6 25.2h1.9v2.2h-1.9z"/><path d="m18.1 16.3h1.9v2.2h-1.9z"/><path d="m18.1 11.9h1.9v2.2h-1.9z"/><path d="m22.6 20.7h1.9v2.2h-1.9z"/><path d="m22.6 11.9h1.9v2.2h-1.9z"/><path d="m22.6 16.3h1.9v2.2h-1.9z"/><path d="m25.2 14.4c0 .2-.2.4-.4.4h-2.6c-.2 0-.4-.1-.4-.4v-2.9c0-.2.1-.4.4-.4h2.6c.2 0 .4.2.4.4zm0 4.4c0 .2-.2.4-.4.4h-2.6c-.2 0-.4-.2-.4-.4v-2.9c0-.2.1-.4.4-.4h2.6c.2 0 .4.1.4.4zm0 4.4c0 .2-.2.4-.4.4h-2.6c-.2 0-.4-.1-.4-.4v-2.9c0-.2.1-.4.4-.4h2.6c.2 0 .4.1.4.4zm0 4.5c0 .2-.2.4-.4.4h-2.6c-.2 0-.4-.2-.4-.4v-2.9c0-.2.1-.4.4-.4h2.6c.2 0 .4.1.4.4zm-4.5-13.3c0 .2-.2.4-.4.4h-2.6c-.2 0-.4-.1-.4-.4v-2.9c0-.2.1-.4.4-.4h2.6c.2 0 .4.2.4.4zm0 4.4c0 .2-.2.4-.4.4h-2.6c-.2 0-.4-.2-.4-.4v-2.9c0-.2.1-.4.4-.4h2.6c.2 0 .4.1.4.4zm0 4.4c0 .2-.2.4-.4.4h-2.6c-.2 0-.4-.1-.4-.4v-2.9c0-.2.1-.4.4-.4h2.6c.2 0 .4.1.4.4zm0 4.5c0 .2-.2.4-.4.4h-2.6c-.2 0-.4-.2-.4-.4v-2.9c0-.2.1-.4.4-.4h2.6c.2 0 .4.1.4.4zm6.3-18c0-.2-.2-.4-.4-.4h-10.7c-.2 0-.4.1-.4.4v19.9h11.5z"/><path d="m30.7 19.2h-1.1c-.2 0-.4-.1-.4-.4s.2-.4.4-.4h1.1c.2 0 .4.1.4.4s-.1.4-.4.4zm0 2.9h-1.1c-.2 0-.4-.1-.4-.4s.2-.4.4-.4h1.1c.2 0 .4.1.4.4 0 .2-.1.4-.4.4zm0 3h-1.1c-.2 0-.4-.2-.4-.4s.2-.4.4-.4h1.1c.2 0 .4.2.4.4s-.1.4-.4.4zm0 2.9h-1.1c-.2 0-.4-.2-.4-.4s.2-.4.4-.4h1.1c.2 0 .4.1.4.4s-.1.4-.4.4zm1.8-10.8c0-.1 0-.2-.1-.3l-3.9-3.3c-.1-.1-.3-.1-.4 0s-.2.2-.2.3v15.6h4.6z"/><path d="m12.9 19.2h-1.1c-.2 0-.4-.1-.4-.4s.1-.4.4-.4h1.1c.2 0 .4.1.4.4 0 .2-.2.4-.4.4zm0 2.9h-1.1c-.2 0-.4-.1-.4-.4s.1-.4.4-.4h1.1c.2 0 .4.1.4.4 0 .2-.2.4-.4.4zm0 3h-1.1c-.2 0-.4-.2-.4-.4s.1-.4.4-.4h1.1c.2 0 .4.2.4.4s-.2.4-.4.4zm0 2.9h-1.1c-.2 0-.4-.2-.4-.4s.1-.4.4-.4h1.1c.2 0 .4.1.4.4s-.2.4-.4.4zm1.8-14.1c0-.1-.1-.3-.2-.3-.1-.1-.3 0-.4 0l-3.9 3.3c-.1.1-.2.2-.2.3v12.4h4.6z"/></g></svg>