<svg enable-background="new 0 0 42.5 42.5" viewBox="0 0 42.5 42.5" xmlns="http://www.w3.org/2000/svg"><path d="m20.2 23.7c.6-2.3 2.4-3.3 3.6-3.8.2-.1.3.2.1.3-1.4.9-2.4 2.2-2.7 3.6-.1 1-1.2.8-1-.1zm-3.1 1.9h15.1c.6-3.9-1-7.9-6.3-7.9-1.2 0-2.4.3-3.4.7h-7.7c-.4 0-.7.3-.7.7s.3.7.7.7h5.5c-.2.1-.3.3-.4.4h-9.4c-.4 0-.7.3-.7.7s.3.7.7.7h8.2c-.1.1-.2.3-.3.4h-6.5c-.4 0-.7.3-.7.7s.3.7.7.7h5.8c-.3 1-.5 1.6-.6 2.2zm15.1.9h-15.8c-.4 0-.8.3-.9.8-.1.4.2.8.6.8h15.9c.4 0 .8-.3.9-.8 0-.5-.3-.8-.7-.8zm-6.2-10.1c.5 0 1-.4 1.1-.9s-.3-.9-.8-.9-1 .4-1.1.9.3.9.8.9z" fill="#a42f8c"/></svg>