<svg enable-background="new 0 0 42.5 42.5" viewBox="0 0 42.5 42.5" xmlns="http://www.w3.org/2000/svg"><g fill="#a42f8c"><path d="m31.8 18.9h-21.1c-.2 0-.4.2-.4.4v.8c0 .2.2.4.4.4h1.3v10.5c0 .5.4.8.8.8.5 0 .8-.4.8-.8v-5.5h5.5l-1.6-1.5h-3.8v-3.4h1.5l5.8 5.8c.2.2.4.2.6 0l5.8-5.8h1.5v3.4h-3.8l-1.7 1.7h5.5v5.5c0 .5.4.8.8.8.5 0 .8-.4.8-.8v-10.6h1.3c.2 0 .4-.2.4-.4v-.8c0-.3-.2-.5-.4-.5"/><path d="m18.6 10.5c.2 0 .4.2.4.4s-.2.4-.4.4-.4-.2-.4-.4.2-.4.4-.4"/><path d="m21.3 10.5c.2 0 .4.2.4.4s-.2.4-.4.4-.4-.2-.4-.4.1-.4.4-.4"/><path d="m23.9 10.5c.2 0 .4.2.4.4s-.2.4-.4.4-.4-.2-.4-.4c.1-.2.2-.4.4-.4"/><path d="m21.6 17v-1.5h1.5c.6 0 1.1-.5 1.1-1.1v-2.4h-.8v2.3c0 .1 0 .2-.1.3s-.2.1-.3.1h-1.5v-2.7h-.8v2.7h-1.5c-.2 0-.4-.2-.4-.4v-2.3h-.8v2.3c0 .6.5 1.1 1.1 1.1h1.5v1.6z"/><path d="m19.2 17h4.4v.9h-4.4z"/></g></svg>